<?xml version="1.0" encoding="UTF-8" standalone="no"?><svg xmlns="http://www.w3.org/2000/svg" xmlns:xlink="http://www.w3.org/1999/xlink" contentScriptType="application/ecmascript" contentStyleType="text/css" height="455px" preserveAspectRatio="none" style="width:643px;height:455px;" version="1.1" viewBox="0 0 643 455" width="643px" zoomAndPan="magnify"><defs><filter height="300%" id="f7zd2kxelr9ja" width="300%" x="-1" y="-1"><feGaussianBlur result="blurOut" stdDeviation="2.0"/><feColorMatrix in="blurOut" result="blurOut2" type="matrix" values="0 0 0 0 0 0 0 0 0 0 0 0 0 0 0 0 0 0 .4 0"/><feOffset dx="4.0" dy="4.0" in="blurOut2" result="blurOut3"/><feBlend in="SourceGraphic" in2="blurOut3" mode="normal"/></filter></defs><g><text fill="#000000" font-family="sans-serif" font-size="14" font-weight="bold" lengthAdjust="spacingAndGlyphs" textLength="164" x="240.25" y="22.9951">User loads SPA page</text><line style="stroke: #A80036; stroke-width: 1.0; stroke-dasharray: 5.0,5.0;" x1="156" x2="156" y1="68.5938" y2="415.0547"/><line style="stroke: #A80036; stroke-width: 1.0; stroke-dasharray: 5.0,5.0;" x1="605.5" x2="605.5" y1="68.5938" y2="415.0547"/><rect fill="#FEFECE" filter="url(#f7zd2kxelr9ja)" height="30.2969" style="stroke: #A80036; stroke-width: 1.5;" width="70" x="119" y="33.2969"/><text fill="#000000" font-family="sans-serif" font-size="14" lengthAdjust="spacingAndGlyphs" textLength="56" x="126" y="53.292">browser</text><rect fill="#FEFECE" filter="url(#f7zd2kxelr9ja)" height="30.2969" style="stroke: #A80036; stroke-width: 1.5;" width="70" x="119" y="414.0547"/><text fill="#000000" font-family="sans-serif" font-size="14" lengthAdjust="spacingAndGlyphs" textLength="56" x="126" y="434.0498">browser</text><rect fill="#FEFECE" filter="url(#f7zd2kxelr9ja)" height="30.2969" style="stroke: #A80036; stroke-width: 1.5;" width="57" x="575.5" y="33.2969"/><text fill="#000000" font-family="sans-serif" font-size="14" lengthAdjust="spacingAndGlyphs" textLength="43" x="582.5" y="53.292">server</text><rect fill="#FEFECE" filter="url(#f7zd2kxelr9ja)" height="30.2969" style="stroke: #A80036; stroke-width: 1.5;" width="57" x="575.5" y="414.0547"/><text fill="#000000" font-family="sans-serif" font-size="14" lengthAdjust="spacingAndGlyphs" textLength="43" x="582.5" y="434.0498">server</text><polygon fill="#A80036" points="594,95.7266,604,99.7266,594,103.7266,598,99.7266" style="stroke: #A80036; stroke-width: 1.0;"/><line style="stroke: #A80036; stroke-width: 1.0;" x1="156" x2="600" y1="99.7266" y2="99.7266"/><text fill="#000000" font-family="sans-serif" font-size="13" lengthAdjust="spacingAndGlyphs" textLength="377" x="163" y="94.6606">HTTP GET https://fullstack-exampleapp.herokuapp.com/spa</text><polygon fill="#A80036" points="167,124.8594,157,128.8594,167,132.8594,163,128.8594" style="stroke: #A80036; stroke-width: 1.0;"/><line style="stroke: #A80036; stroke-width: 1.0; stroke-dasharray: 2.0,2.0;" x1="161" x2="605" y1="128.8594" y2="128.8594"/><text fill="#000000" font-family="sans-serif" font-size="13" lengthAdjust="spacingAndGlyphs" textLength="56" x="173" y="123.7935">spa.html</text><polygon fill="#A80036" points="594,153.9922,604,157.9922,594,161.9922,598,157.9922" style="stroke: #A80036; stroke-width: 1.0;"/><line style="stroke: #A80036; stroke-width: 1.0;" x1="156" x2="600" y1="157.9922" y2="157.9922"/><text fill="#000000" font-family="sans-serif" font-size="13" lengthAdjust="spacingAndGlyphs" textLength="411" x="163" y="152.9263">HTTP GET https://fullstack-exampleapp.herokuapp.com/main.css</text><polygon fill="#A80036" points="167,183.125,157,187.125,167,191.125,163,187.125" style="stroke: #A80036; stroke-width: 1.0;"/><line style="stroke: #A80036; stroke-width: 1.0; stroke-dasharray: 2.0,2.0;" x1="161" x2="605" y1="187.125" y2="187.125"/><text fill="#000000" font-family="sans-serif" font-size="13" lengthAdjust="spacingAndGlyphs" textLength="57" x="173" y="182.0591">main.css</text><polygon fill="#A80036" points="594,212.2578,604,216.2578,594,220.2578,598,216.2578" style="stroke: #A80036; stroke-width: 1.0;"/><line style="stroke: #A80036; stroke-width: 1.0;" x1="156" x2="600" y1="216.2578" y2="216.2578"/><text fill="#000000" font-family="sans-serif" font-size="13" lengthAdjust="spacingAndGlyphs" textLength="391" x="163" y="211.1919">HTTP GET https://fullstack-exampleapp.herokuapp.com/spa.js</text><polygon fill="#A80036" points="167,241.3906,157,245.3906,167,249.3906,163,245.3906" style="stroke: #A80036; stroke-width: 1.0;"/><line style="stroke: #A80036; stroke-width: 1.0; stroke-dasharray: 2.0,2.0;" x1="161" x2="605" y1="245.3906" y2="245.3906"/><text fill="#000000" font-family="sans-serif" font-size="13" lengthAdjust="spacingAndGlyphs" textLength="37" x="173" y="240.3247">spa.js</text><path d="M8,258.3906 L8,298.3906 L300,298.3906 L300,268.3906 L290,258.3906 L8,258.3906 " fill="#FBFB77" filter="url(#f7zd2kxelr9ja)" style="stroke: #A80036; stroke-width: 1.0;"/><path d="M290,258.3906 L290,268.3906 L300,268.3906 L290,258.3906 " fill="#FBFB77" style="stroke: #A80036; stroke-width: 1.0;"/><text fill="#000000" font-family="sans-serif" font-size="13" lengthAdjust="spacingAndGlyphs" textLength="267" x="14" y="275.4575">Send a request for the notes object in the</text><text fill="#000000" font-family="sans-serif" font-size="13" lengthAdjust="spacingAndGlyphs" textLength="185" x="14" y="290.5903">browser js, which just loaded.</text><polygon fill="#A80036" points="594,324.7891,604,328.7891,594,332.7891,598,328.7891" style="stroke: #A80036; stroke-width: 1.0;"/><line style="stroke: #A80036; stroke-width: 1.0;" x1="156" x2="600" y1="328.7891" y2="328.7891"/><text fill="#000000" font-family="sans-serif" font-size="13" lengthAdjust="spacingAndGlyphs" textLength="413" x="163" y="323.7231">HTTP GET https://fullstack-exampleapp.herokuapp.com/data.json</text><polygon fill="#A80036" points="167,353.9219,157,357.9219,167,361.9219,163,357.9219" style="stroke: #A80036; stroke-width: 1.0;"/><line style="stroke: #A80036; stroke-width: 1.0; stroke-dasharray: 2.0,2.0;" x1="161" x2="605" y1="357.9219" y2="357.9219"/><text fill="#000000" font-family="sans-serif" font-size="13" lengthAdjust="spacingAndGlyphs" textLength="426" x="173" y="352.856">[{content: "HTML is easy", date: "2019-05-23T17:30:31.098Z"}, ...]</text><path d="M49,370.9219 L49,395.9219 L259,395.9219 L259,380.9219 L249,370.9219 L49,370.9219 " fill="#FBFB77" filter="url(#f7zd2kxelr9ja)" style="stroke: #A80036; stroke-width: 1.0;"/><path d="M249,370.9219 L249,380.9219 L259,380.9219 L249,370.9219 " fill="#FBFB77" style="stroke: #A80036; stroke-width: 1.0;"/><text fill="#000000" font-family="sans-serif" font-size="13" lengthAdjust="spacingAndGlyphs" textLength="189" x="55" y="387.9888">On receiving this, render html</text><!--
@startuml sequence3
title User loads SPA page
participant browser
participant server
browser -> server : HTTP GET https://fullstack-exampleapp.herokuapp.com/spa
return spa.html
browser -> server : HTTP GET https://fullstack-exampleapp.herokuapp.com/main.css
return main.css
browser -> server : HTTP GET https://fullstack-exampleapp.herokuapp.com/spa.js
return spa.js
note over browser
  Send a request for the notes object in the 
  browser js, which just loaded.
end note
browser -> server : HTTP GET https://fullstack-exampleapp.herokuapp.com/data.json
return [{content: "HTML is easy", date: "2019-05-23T17:30:31.098Z"}, ...]
note over browser
  On receiving this, render html
end note
@enduml

PlantUML version 1.2019.06(Fri May 24 10:10:25 PDT 2019)
(GPL source distribution)
Java Runtime: OpenJDK Runtime Environment
JVM: OpenJDK 64-Bit Server VM
Java Version: 1.8.0_242-b08
Operating System: Linux
OS Version: 5.4.28-1-MANJARO
Default Encoding: UTF-8
Language: en
Country: US
--></g></svg>